<?xml version="1.0" encoding="UTF-8"?>
<svg width="34px" height="35px" viewBox="0 0 34 35" version="1.1" xmlns="http://www.w3.org/2000/svg"
    xmlns:xlink="http://www.w3.org/1999/xlink">
    <defs>
        <polygon id="path-1" points="0 0.497521277 33.8218356 0.497521277 33.8218356 24.4196489 0 24.4196489"></polygon>
        <polygon id="path-3" points="0 0.58256383 33.8215342 0.58256383 33.8215342 17.848734 0 17.848734"></polygon>
    </defs>
    <g id="Page-1" stroke="none" stroke-width="1" fill="none" fill-rule="evenodd">
        <g id="Group-37">
            <g id="Group-25" transform="translate(0.000000, 8.936170)">
                <mask id="mask-2" fill="white">
                    <use xlink:href="#path-1"></use>
                </mask>
                <g id="Clip-24"></g>
                <path
                    d="M22.6176575,16.3644362 C21.8589589,16.6295426 21.1123151,16.9155 20.3739589,17.214117 L20.3739589,10.0443298 L13.4432055,10.0443298 L13.4432055,17.214117 C12.7048493,16.9110319 11.9544384,16.6258191 11.2002603,16.3562447 L11.2002603,7.83932979 L13.147863,4.69528723 L16.9089589,2.97209574 L20.6738219,4.69528723 L22.6176575,7.83932979 L22.6176575,16.3644362 Z M26.0668356,12.4526277 C26.1610137,12.4287979 26.2551918,12.4042234 26.3493699,12.3789043 C27.2022466,12.1510319 28.0679315,11.9387979 28.9456712,11.7422021 C29.7209452,11.5672021 30.508274,11.3996489 31.2993699,11.2440106 C32.0791644,11.0935851 32.8664932,10.9543298 33.657589,10.827734 C33.7638219,10.0770957 33.8173151,9.3048617 33.8218356,8.52518085 C33.0586164,8.64358511 32.3044384,8.77464894 31.5577945,8.91241489 C30.8111507,9.05167021 30.0773151,9.19837234 29.3472466,9.35401064 C28.5644384,9.52156383 27.7891644,9.70103191 27.0266986,9.88869149 C26.3003973,10.0681596 25.583137,10.2565638 24.873411,10.4561383 L24.873411,7.20188298 L22.2364247,2.94007447 L16.9089589,0.497521277 L11.5852603,2.94007447 L8.94450685,7.20188298 L8.94450685,10.4524149 C8.66573973,10.3742234 8.38245205,10.3049681 8.09916438,10.2319894 C8.07957534,10.2275213 8.063,10.2237979 8.03436986,10.2148617 C7.88669863,10.1739043 7.73827397,10.1336915 7.59135616,10.0972021 C7.32464384,10.0272021 7.06621918,9.9542234 6.79573973,9.88869149 C6.76258904,9.8805 6.73019178,9.87230851 6.69327397,9.86411702 C5.95868493,9.68018085 5.22108219,9.51337234 4.47067123,9.35401064 C4.19115068,9.29294681 3.90786301,9.2311383 3.62532877,9.17826596 C3.58012329,9.16635106 3.53943836,9.15741489 3.49423288,9.14996809 C3.48971233,9.14624468 3.48217808,9.14624468 3.47765753,9.14624468 C3.07984932,9.06358511 2.67827397,8.98688298 2.27594521,8.91688298 C2.27217808,8.91241489 2.26765753,8.91241489 2.26389041,8.91241489 C1.51724658,8.77464894 0.763068493,8.64358511 -0.000150684932,8.52518085 C0.00436986301,9.3048617 0.0578630137,10.0770957 0.16409589,10.827734 C0.959712329,10.9543298 1.74252055,11.0973085 2.52231507,11.2440106 C3.31341096,11.3996489 4.10073973,11.5672021 4.8760137,11.7422021 C5.75375342,11.9387979 6.61943836,12.1510319 7.47231507,12.3789043 L7.75484932,12.4526277 C8.15265753,12.559117 8.55121918,12.6693298 8.94450685,12.787734 L8.94450685,15.5966702 C8.50978082,15.4536915 8.06676712,15.3196489 7.62375342,15.184117 C7.14005479,15.041883 6.65183562,14.8981596 6.15984932,14.7678404 C5.70026027,14.6375213 5.24142466,14.5153936 4.77354795,14.3999681 C4.31019178,14.2778404 3.83854795,14.1639043 3.36690411,14.0529468 C2.51026027,13.8533723 1.64457534,13.6657128 0.766835616,13.4944362 C1.03731507,14.3597553 1.37786301,15.1967766 1.7839589,15.9973085 C2.00923288,16.0501809 2.23526027,16.0993298 2.46053425,16.147734 C3.26067123,16.3316702 4.05176712,16.5275213 4.83156164,16.7315638 C4.96642466,16.7687979 5.10128767,16.8052872 5.23690411,16.8425213 C6.27512329,17.1202872 7.29149315,17.4174149 8.2920411,17.7406064 L8.29656164,17.7406064 C8.46457534,17.7979468 8.63710959,17.8508191 8.80512329,17.9074149 C8.85032877,17.9245426 8.89930137,17.9401809 8.94450685,17.9565638 C9.24436986,18.0548617 9.53519178,18.1524149 9.83053425,18.2544362 C10.2321096,18.3936915 10.6299178,18.5366702 11.027726,18.6878404 C11.0849863,18.7079468 11.143,18.7287979 11.2002603,18.7526277 C12.2708767,19.1487979 13.3249178,19.5769894 14.3540959,20.0394362 C14.1039589,20.1734787 13.8493014,20.312734 13.6036849,20.4557128 C13.3038219,20.623266 13.0047123,20.7945426 12.713137,20.9658191 C12.2173836,21.2599681 11.7291644,21.5578404 11.2492329,21.8646489 C11.2168356,21.8519894 11.1836849,21.8356064 11.1505342,21.8229468 C10.8145068,21.6851809 10.4784795,21.5459255 10.1379315,21.4148617 C9.44854795,21.1415638 8.75163014,20.8794362 8.04190411,20.6307128 C7.513,20.4437979 6.98409589,20.2635851 6.44690411,20.0878404 C6.10635616,19.9783723 5.76580822,19.8674149 5.42149315,19.7653936 C4.95436986,19.6186915 4.47820548,19.4757128 4.00279452,19.3446489 C4.26121918,19.6514574 4.53169863,19.9485851 4.8149863,20.2345426 C5.34765753,20.7826277 5.92176712,21.292734 6.52526027,21.7581596 C7.30806849,22.3665638 8.14512329,22.9049681 9.02663014,23.3703936 C9.07183562,23.3994362 9.12080822,23.423266 9.16978082,23.4485851 L9.17430137,23.4485851 C9.90361644,23.8246489 10.6668356,24.1508191 11.4541644,24.4196489 C11.4624521,24.4122021 11.4669726,24.407734 11.4745068,24.407734 C12.2045753,23.9095426 12.9640274,23.4322021 13.7430685,22.9660319 C13.7837534,22.9459255 13.8206712,22.9220957 13.8613562,22.8967766 C13.923137,22.8602872 13.9849178,22.828266 14.0466986,22.7910319 C14.9651233,22.2563511 15.9242329,21.7335851 16.912726,21.2398617 C17.1553288,21.1169894 17.4009452,20.9948617 17.6465616,20.8764574 C18.0812877,20.6679468 18.5205342,20.4594362 18.9635479,20.259117 C19.1315616,20.1816702 19.2995753,20.1079468 19.467589,20.0394362 C20.493,19.5769894 21.5508082,19.153266 22.6176575,18.7526277 C22.6749178,18.7325213 22.7366986,18.7079468 22.7939589,18.6878404 C23.1917671,18.5366702 23.5933425,18.3936915 23.9956712,18.2544362 C24.282726,18.1524149 24.5780685,18.0548617 24.873411,17.9610319 C24.9186164,17.9446489 24.967589,17.928266 25.0165616,17.911883 C25.1845753,17.8545426 25.3571096,17.7979468 25.5251233,17.7450745 C26.5301918,17.421883 27.5465616,17.1202872 28.5885479,16.8425213 C28.7203973,16.8052872 28.8552603,16.7687979 28.9901233,16.7315638 C29.7699178,16.5275213 30.5610137,16.3316702 31.3649178,16.1522021 C31.5864247,16.0993298 31.8124521,16.0501809 32.037726,15.9973085 C32.4438219,15.1967766 32.7843699,14.3597553 33.0548493,13.4944362 C32.1771096,13.6657128 31.3076575,13.8533723 30.4547808,14.0529468 C29.983137,14.1639043 29.5152603,14.2778404 29.048137,14.3999681 C28.5847808,14.5153936 28.1214247,14.6375213 27.6618356,14.7678404 C27.1698493,14.8981596 26.6816301,15.041883 26.1979315,15.184117 C25.7511507,15.3151809 25.3119041,15.4536915 24.873411,15.5929468 L24.873411,12.787734 C25.2666986,12.6730532 25.6645068,12.559117 26.0668356,12.4526277 Z"
                    id="Fill-23" fill="#22412F" mask="url(#mask-2)"></path>
            </g>
            <g id="Group-28">
                <mask id="mask-4" fill="white">
                    <use xlink:href="#path-3"></use>
                </mask>
                <g id="Clip-27"></g>
                <path
                    d="M33.8215342,17.4160745 L33.8215342,17.4615 C33.0590685,17.5799043 32.304137,17.7109681 31.5582466,17.848734 C31.5620137,17.7065 31.5657808,17.5590532 31.5657808,17.4160745 C31.5657808,16.7384149 31.5213288,16.0689468 31.4263973,15.415117 C31.3246849,14.6607553 31.1642055,13.9294787 30.9472192,13.2190532 C29.1299589,7.21320213 23.5274932,2.8277766 16.9131781,2.8277766 C10.293589,2.8277766 4.69187671,7.21320213 2.87461644,13.2190532 C2.65763014,13.9294787 2.49715068,14.6607553 2.39543836,15.415117 C2.33742466,15.8157553 2.29673973,16.220117 2.27564384,16.6282021 L2.27564384,16.6609681 C2.26358904,16.9096915 2.25605479,17.162883 2.25605479,17.4160745 C2.25605479,17.5590532 2.25982192,17.7065 2.26358904,17.848734 C1.51769863,17.7109681 0.762767123,17.5799043 -0.000452054795,17.4615 L-0.000452054795,17.4160745 C-0.000452054795,16.6244787 0.0575616438,15.8403298 0.163794521,15.0762872 C0.266260274,14.3256489 0.422219178,13.5906489 0.627150685,12.8757553 C2.62071233,5.79235106 9.16571233,0.58256383 16.9131781,0.58256383 C24.6553699,0.58256383 31.2011233,5.79235106 33.1939315,12.8757553 C33.398863,13.5906489 33.5548219,14.3256489 33.6580411,15.0762872 C33.764274,15.8403298 33.8215342,16.6244787 33.8215342,17.4160745"
                    id="Fill-26" fill="#399E2C" mask="url(#mask-4)"></path>
            </g>
            <path
                d="M29.3845411,17.4160745 C29.3845411,17.7109681 29.3717329,18.0043723 29.3476233,18.2903298 C28.5640616,18.4571383 27.7887877,18.6373511 27.0263219,18.8250106 C27.095637,18.3633085 27.1287877,17.8941596 27.1287877,17.4160745 C27.1287877,17.0280957 27.1084452,16.6445851 27.0632397,16.269266 C26.9773493,15.5089468 26.8093356,14.7784149 26.5629658,14.0806489 C25.1766644,10.1040532 21.3748836,7.2415 16.9131027,7.2415 C12.4505685,7.2415 8.6495411,10.1040532 7.26323973,14.0806489 C7.01310274,14.7784149 6.84433562,15.5089468 6.75844521,16.269266 C6.71323973,16.6445851 6.69289726,17.0280957 6.69289726,17.4160745 C6.69289726,17.5344787 6.70118493,17.6484149 6.70495205,17.7675638 C6.71776027,18.1227766 6.74186986,18.4779894 6.79536301,18.8250106 C6.76296575,18.8168191 6.72981507,18.8086277 6.69289726,18.8004362 C5.95906164,18.6165 5.22070548,18.4496915 4.47029452,18.2903298 C4.44995205,18.0043723 4.43714384,17.7109681 4.43714384,17.4160745 C4.43714384,16.8694787 4.47406164,16.3303298 4.54413014,15.8038404 C4.64282877,15.0479894 4.80632192,14.3174574 5.03611644,13.6115 C6.65221233,8.61767021 11.3641301,4.99554255 16.9131027,4.99554255 C22.4575548,4.99554255 27.170226,8.61767021 28.7855685,13.6115 C29.015363,14.3174574 29.1796096,15.0479894 29.2775548,15.8038404 C29.3476233,16.3303298 29.3845411,16.8694787 29.3845411,17.4160745"
                id="Fill-29" fill="#399E2C"></path>
            <path
                d="M27.3755342,29.0247553 C26.8383425,29.2005 26.3094384,29.3807128 25.7805342,29.5676277 C25.0708082,29.8170957 24.3693699,30.0784787 23.6807397,30.3562447 C23.3401918,30.4865638 23.0041644,30.6220957 22.6719041,30.7598617 C22.6387534,30.7725213 22.6018356,30.7889043 22.5694384,30.8052872 C22.1588219,30.9720957 21.7572466,31.144117 21.3549178,31.3235851 L21.3511507,31.3235851 C20.9209452,31.5157128 20.4937534,31.7078404 20.0756027,31.9036915 C19.222726,32.3035851 18.3901918,32.7198617 17.5900548,33.1487979 C17.3610137,33.2709255 17.1349863,33.3937979 16.9097123,33.5203936 C16.4990959,33.7452872 16.0937534,33.9739043 15.6959452,34.2107128 C16.0975205,34.2390106 16.5036164,34.2546489 16.9097123,34.2546489 C17.3158082,34.2546489 17.7173836,34.2390106 18.1197123,34.2107128 C19.5263562,34.1124149 20.883274,33.8428404 22.1753973,33.4176277 C22.2371781,33.3975213 22.2982055,33.3774149 22.3645068,33.3565638 C23.1473151,33.087734 23.9097808,32.7645426 24.6406027,32.3855 C24.6443699,32.3855 24.6526575,32.3810319 24.6564247,32.3773085 C24.7099178,32.3601809 24.7588904,32.3400745 24.8086164,32.3199681 C24.8003288,32.3162447 24.7958082,32.3117766 24.7875205,32.3073085 C25.6735479,31.8463511 26.5106027,31.3034787 27.293411,30.6950745 C27.8961507,30.2296489 28.4710137,29.7195426 29.0036849,29.1714574 C29.2869726,28.8855 29.5574521,28.5883723 29.8158767,28.2815638 C29.3397123,28.4170957 28.8680685,28.5556064 28.4009452,28.7023085 C28.0566301,28.8043298 27.7160822,28.9152872 27.3755342,29.0247553"
                id="Fill-31" fill="#22412F"></path>
            <polygon id="Fill-33" fill="#FFFFFF"
                points="18.2096712 14.9063511 18.2096712 17.2007128 15.6096027 17.2007128 15.6096027 14.9063511 16.9092603 14.1676277">
            </polygon>
            <polygon id="Fill-35" fill="#22412F"
                points="18.2096712 14.9063511 18.2096712 17.2007128 15.6096027 17.2007128 15.6096027 14.9063511 16.9092603 14.1676277">
            </polygon>
        </g>
    </g>
</svg>
